<svg width="322" height="310" viewBox="0 0 322 310" fill="none" xmlns="http://www.w3.org/2000/svg">
<path d="M47.119 45.3338C24.5839 67.0151 9.23413 94.6437 3.01121 124.725C-3.21172 154.806 -0.0282025 185.988 12.1591 214.327C24.3463 242.666 44.9898 266.889 71.4784 283.931C97.9669 300.974 129.11 310.07 160.97 310.07C192.829 310.07 223.972 300.974 250.461 283.931C276.949 266.889 297.593 242.666 309.78 214.327C321.967 185.988 325.151 154.806 318.928 124.725C312.705 94.6437 297.355 67.0151 274.82 45.3338C244.595 16.319 203.653 0.0257263 160.97 0.0257263C118.286 0.0257263 77.3444 16.319 47.119 45.3338V45.3338ZM257.333 247.743C238.281 266.083 214.007 278.572 187.583 283.631C161.158 288.69 133.768 286.091 108.877 276.165C83.9862 266.238 62.7117 249.428 47.7437 227.861C32.7758 206.294 24.7868 180.938 24.7868 155C24.7868 129.062 32.7758 103.706 47.7437 82.1391C62.7117 60.5721 83.9862 43.7624 108.877 33.8355C133.768 23.9086 161.158 21.3104 187.583 26.3694C214.007 31.4284 238.281 43.9174 257.333 62.2572C282.84 86.8757 297.164 120.228 297.164 155C297.164 189.772 282.84 223.124 257.333 247.743V247.743ZM164.218 173.531C178.88 173.355 193.275 177.308 205.633 184.906C217.991 192.503 227.772 203.413 233.773 216.293C234.248 217.35 234.501 218.487 234.519 219.639C234.537 220.791 234.319 221.935 233.878 223.005C233.437 224.076 232.781 225.053 231.948 225.879C231.115 226.706 230.12 227.367 229.022 227.823C227.924 228.28 226.742 228.524 225.546 228.542C224.35 228.559 223.162 228.349 222.049 227.924C220.937 227.5 219.923 226.868 219.064 226.066C218.205 225.264 217.519 224.307 217.045 223.249C212.449 213.507 204.993 205.271 195.596 199.558C186.198 193.845 175.27 190.904 164.157 191.097C140.264 191.097 119.376 203.724 110.966 223.249C110.281 224.855 109.116 226.229 107.619 227.197C106.122 228.165 104.36 228.683 102.557 228.686C101.377 228.664 100.213 228.426 99.126 227.984C98.0101 227.551 96.9943 226.909 96.1375 226.096C95.2806 225.283 94.5997 224.314 94.1339 223.246C93.6681 222.178 93.4268 221.032 93.4238 219.873C93.4208 218.715 93.6563 217.568 94.1165 216.497C105.471 190.396 132.947 173.531 164.218 173.531ZM91.3538 97.8286C90.5564 97.7787 89.777 97.5781 89.0601 97.2382C88.3433 96.8983 87.703 96.4258 87.1758 95.8477C86.6486 95.2696 86.2448 94.5972 85.9876 93.8689C85.7303 93.1405 85.6246 92.3705 85.6764 91.6029C85.7282 90.8352 85.9366 90.0849 86.2897 89.3947C86.6427 88.7046 87.1335 88.0881 87.734 87.5806C88.3344 87.073 89.0329 86.6843 89.7894 86.4367C90.5459 86.189 91.3457 86.0872 92.1431 86.1371C92.386 86.1371 118.496 87.5985 128.302 74.4456C129.282 73.2833 130.688 72.5272 132.229 72.3331C133.771 72.1391 135.332 72.5218 136.589 73.4025C137.846 74.2832 138.705 75.5947 138.988 77.0667C139.27 78.5387 138.956 80.0591 138.108 81.3143C126.723 96.4548 103.376 97.9163 94.6023 97.9163C92.6896 97.9163 91.4752 97.8578 91.2323 97.8286H91.3538ZM138.685 118.873C138.691 122.564 137.514 126.167 135.315 129.191C133.556 126.845 131.238 124.94 128.555 123.636C125.871 122.332 122.902 121.668 119.897 121.7C116.892 121.731 113.938 122.457 111.285 123.817C108.632 125.177 106.357 127.13 104.652 129.513C102.9 127.199 101.742 124.52 101.274 121.693C100.805 118.866 101.039 115.973 101.956 113.249C102.873 110.526 104.446 108.051 106.548 106.026C108.65 104.002 111.221 102.485 114.049 101.601C116.877 100.717 119.882 100.491 122.819 100.94C125.755 101.39 128.539 102.503 130.943 104.188C133.346 105.873 135.301 108.082 136.647 110.635C137.993 113.188 138.691 116.011 138.685 118.873V118.873ZM186.897 81.3436C186.391 80.7243 186.021 80.013 185.808 79.2524C185.594 78.4918 185.543 77.6975 185.657 76.9173C185.771 76.1372 186.047 75.3872 186.469 74.7124C186.892 74.0377 187.452 73.4521 188.115 72.9908C188.778 72.5296 189.532 72.2022 190.33 72.0283C191.128 71.8544 191.954 71.8376 192.759 71.979C193.564 72.1203 194.332 72.4168 195.015 72.8508C195.698 73.2847 196.282 73.847 196.734 74.504C206.54 87.5108 232.62 86.1955 232.893 86.1955C234.503 86.0948 236.089 86.614 237.302 87.639C238.515 88.6641 239.255 90.1109 239.36 91.6613C239.464 93.2117 238.925 94.7386 237.86 95.9062C236.796 97.0737 235.293 97.7863 233.682 97.887C233.439 97.887 232.225 97.887 230.282 97.887C221.629 97.8286 198.191 96.4548 186.897 81.3436ZM205.113 100.635C210.103 100.642 214.886 102.554 218.415 105.951C221.943 109.348 223.929 113.953 223.937 118.756C223.946 122.584 222.679 126.313 220.324 129.396C218.612 127.02 216.333 125.075 213.679 123.722C211.025 122.369 208.073 121.648 205.07 121.619C202.067 121.59 199.101 122.255 196.42 123.557C193.739 124.859 191.421 126.761 189.66 129.103C187.697 126.386 186.544 123.202 186.328 119.898C186.111 116.595 186.838 113.297 188.431 110.363C190.023 107.429 192.42 104.971 195.361 103.256C198.302 101.541 201.675 100.635 205.113 100.635V100.635Z" fill="white" fill-opacity="0.17"/>
</svg>
